{
	"patcher" : 	{
		"fileversion" : 1,
		"appversion" : 		{
			"major" : 8,
			"minor" : 5,
			"revision" : 1,
			"architecture" : "x64",
			"modernui" : 1
		}
,
		"classnamespace" : "box",
		"rect" : [ 34.0, 100.0, 1444.0, 811.0 ],
		"bglocked" : 0,
		"openinpresentation" : 0,
		"default_fontsize" : 12.0,
		"default_fontface" : 0,
		"default_fontname" : "Arial",
		"gridonopen" : 1,
		"gridsize" : [ 15.0, 15.0 ],
		"gridsnaponopen" : 1,
		"objectsnaponopen" : 1,
		"statusbarvisible" : 2,
		"toolbarvisible" : 1,
		"lefttoolbarpinned" : 0,
		"toptoolbarpinned" : 0,
		"righttoolbarpinned" : 0,
		"bottomtoolbarpinned" : 0,
		"toolbars_unpinned_last_save" : 0,
		"tallnewobj" : 0,
		"boxanimatetime" : 200,
		"enablehscroll" : 1,
		"enablevscroll" : 1,
		"devicewidth" : 0.0,
		"description" : "",
		"digest" : "",
		"tags" : "",
		"style" : "",
		"subpatcher_template" : "",
		"assistshowspatchername" : 0,
		"boxes" : [ 			{
				"box" : 				{
					"bubble" : 1,
					"id" : "obj-125",
					"linecount" : 2,
					"maxclass" : "comment",
					"numinlets" : 1,
					"numoutlets" : 0,
					"patching_rect" : [ 264.0, 84.0, 150.0, 37.0 ],
					"presentation" : 1,
					"presentation_linecount" : 2,
					"presentation_rect" : [ 366.0, 165.666641473770142, 150.0, 37.0 ],
					"text" : "click here to download the file"
				}

			}
, 			{
				"box" : 				{
					"id" : "obj-122",
					"maxclass" : "comment",
					"numinlets" : 1,
					"numoutlets" : 0,
					"patching_rect" : [ 850.0, 116.0, 150.0, 20.0 ],
					"presentation" : 1,
					"presentation_rect" : [ 777.0, 119.166641473770142, 150.0, 20.0 ],
					"text" : "the file url appears here"
				}

			}
, 			{
				"box" : 				{
					"id" : "obj-120",
					"linecount" : 5,
					"maxclass" : "comment",
					"numinlets" : 1,
					"numoutlets" : 0,
					"patching_rect" : [ 642.0, 247.0, 150.0, 74.0 ],
					"presentation" : 1,
					"presentation_linecount" : 5,
					"presentation_rect" : [ 348.0, 354.0, 150.0, 74.0 ],
					"text" : "sometimes there will be errors in the console if it finds a file that doesn't fit into your max and min byte requirmenets"
				}

			}
, 			{
				"box" : 				{
					"bubble" : 1,
					"id" : "obj-118",
					"linecount" : 2,
					"maxclass" : "comment",
					"numinlets" : 1,
					"numoutlets" : 0,
					"patching_rect" : [ 279.0, 99.0, 150.0, 37.0 ],
					"presentation" : 1,
					"presentation_linecount" : 2,
					"presentation_rect" : [ 112.20001631975174, 104.666641473770142, 150.0, 37.0 ],
					"text" : "click me if something breaks"
				}

			}
, 			{
				"box" : 				{
					"bubble" : 1,
					"id" : "obj-117",
					"linecount" : 2,
					"maxclass" : "comment",
					"numinlets" : 1,
					"numoutlets" : 0,
					"patching_rect" : [ 264.0, 84.0, 150.0, 37.0 ],
					"presentation" : 1,
					"presentation_linecount" : 2,
					"presentation_rect" : [ 95.0, 72.0, 150.0, 37.0 ],
					"text" : "click me if you've never opened this patch"
				}

			}
, 			{
				"box" : 				{
					"bubble" : 1,
					"id" : "obj-114",
					"maxclass" : "comment",
					"numinlets" : 1,
					"numoutlets" : 0,
					"patching_rect" : [ 249.0, 69.0, 150.0, 24.0 ],
					"presentation" : 1,
					"presentation_rect" : [ 358.0, 72.0, 150.0, 24.0 ],
					"text" : "click me!"
				}

			}
, 			{
				"box" : 				{
					"id" : "obj-112",
					"maxclass" : "newobj",
					"numinlets" : 1,
					"numoutlets" : 1,
					"outlettype" : [ "bang" ],
					"patching_rect" : [ 1356.0, 49.0, 58.0, 22.0 ],
					"text" : "loadbang"
				}

			}
, 			{
				"box" : 				{
					"id" : "obj-109",
					"linecount" : 2,
					"maxclass" : "newobj",
					"numinlets" : 1,
					"numoutlets" : 1,
					"outlettype" : [ "" ],
					"patching_rect" : [ 1528.0, 141.0, 63.0, 35.0 ],
					"text" : "loadmess 2400000"
				}

			}
, 			{
				"box" : 				{
					"id" : "obj-108",
					"maxclass" : "newobj",
					"numinlets" : 1,
					"numoutlets" : 1,
					"outlettype" : [ "" ],
					"patching_rect" : [ 1410.0, 110.0, 83.0, 22.0 ],
					"text" : "loadmess 100"
				}

			}
, 			{
				"box" : 				{
					"id" : "obj-107",
					"maxclass" : "comment",
					"numinlets" : 1,
					"numoutlets" : 0,
					"patching_rect" : [ 1391.0, 228.0, 150.0, 20.0 ],
					"presentation" : 1,
					"presentation_rect" : [ 189.0, 393.0, 150.0, 20.0 ],
					"text" : "mb -> bytes = * 1000000"
				}

			}
, 			{
				"box" : 				{
					"id" : "obj-104",
					"maxclass" : "comment",
					"numinlets" : 1,
					"numoutlets" : 0,
					"patching_rect" : [ 1224.0, 228.0, 150.0, 20.0 ],
					"presentation" : 1,
					"presentation_rect" : [ 24.0, 390.5, 150.0, 20.0 ],
					"text" : "KB -> bytes = * 1000"
				}

			}
, 			{
				"box" : 				{
					"id" : "obj-97",
					"maxclass" : "number",
					"numinlets" : 1,
					"numoutlets" : 2,
					"outlettype" : [ "", "bang" ],
					"parameter_enable" : 0,
					"patching_rect" : [ 1253.0, 193.0, 50.0, 22.0 ],
					"presentation" : 1,
					"presentation_rect" : [ 119.0, 348.0, 50.0, 22.0 ]
				}

			}
, 			{
				"box" : 				{
					"id" : "obj-96",
					"maxclass" : "number",
					"numinlets" : 1,
					"numoutlets" : 2,
					"outlettype" : [ "", "bang" ],
					"parameter_enable" : 0,
					"patching_rect" : [ 1162.0, 193.0, 50.0, 22.0 ],
					"presentation" : 1,
					"presentation_rect" : [ 28.0, 348.0, 50.0, 22.0 ]
				}

			}
, 			{
				"box" : 				{
					"id" : "obj-94",
					"maxclass" : "comment",
					"numinlets" : 1,
					"numoutlets" : 0,
					"patching_rect" : [ 1162.0, 162.0, 180.0, 20.0 ],
					"presentation" : 1,
					"presentation_rect" : [ 28.0, 317.0, 180.0, 20.0 ],
					"text" : "min  (bytes)          max (bytes)"
				}

			}
, 			{
				"box" : 				{
					"id" : "obj-92",
					"linecount" : 18,
					"maxclass" : "comment",
					"numinlets" : 1,
					"numoutlets" : 0,
					"patching_rect" : [ 1164.0, 250.0, 462.0, 248.0 ],
					"presentation" : 1,
					"presentation_linecount" : 18,
					"presentation_rect" : [ -37.0, 441.0, 462.0, 248.0 ],
					"text" : "\nBitrate\tFile size |   per second\tFile size  |   per minute\tFile size   |    per hour\n 8 Kbps\t                    1 KB\t                                  60 KB\t                      3.6 MB\n16 Kbps\t                    2 KB\t                                 120 KB\t                    7.2 MB\n32 Kbps\t                    4 KB\t                                 240 KB\t                   14.4 MB\n40 Kbps\t                    5 KB                                 \t300 KB                   \t18.0 MB\n48 Kbps\t                    6 KB                                \t360 KB                     \t21.6 MB\n56 Kbps                     \t7 KB                              \t420 KB                      \t25.2 MB\n64 Kbps                     \t8 KB                              \t480 KB                     \t28.8 MB\n80 Kbps\t                    10 KB\t                             600 KB                    \t36.0 MB\n96 Kbps                    \t12 KB\t                              720 KB                \t43.2 MB\n112 Kbps                  \t14 KB                              \t840 KB               \t    50.4 MB\n128 Kbps\t                 16 KB                             \t960 KB\t                    57.6 MB\n160 Kbps\t                 20 KB                          \t1.20 MB\t7                      2.0 MB\n192 Kbps\t                 24 KB\t                              1.44 MB\t                           86.4 MB\n224 Kbps\t                 28 KB\t                                1.68 MB                   \t100.8 MB\n256 Kbps\t                 32 KB\t                           1.92 MB                        \t115.2 MB\n320 Kbps\t                 40 KB\t                          2.40 MB\t                      144.0 MB"
				}

			}
, 			{
				"box" : 				{
					"id" : "obj-85",
					"linecount" : 2,
					"maxclass" : "comment",
					"numinlets" : 1,
					"numoutlets" : 0,
					"patching_rect" : [ 1320.0, 174.0, 150.0, 33.0 ],
					"presentation" : 1,
					"presentation_linecount" : 2,
					"presentation_rect" : [ 183.5, 348.0, 150.0, 33.0 ],
					"text" : "this size should be very large "
				}

			}
, 			{
				"box" : 				{
					"id" : "obj-34",
					"items" : [ "mp3", ",", "jpg", ",", "jpeg", ",", "mov", ",", "mp4" ],
					"maxclass" : "umenu",
					"numinlets" : 1,
					"numoutlets" : 3,
					"outlettype" : [ "int", "", "" ],
					"parameter_enable" : 0,
					"patching_rect" : [ 1153.0, 118.0, 100.0, 22.0 ],
					"presentation" : 1,
					"presentation_rect" : [ 24.0, 272.0, 100.0, 22.0 ]
				}

			}
, 			{
				"box" : 				{
					"id" : "obj-32",
					"maxclass" : "comment",
					"numinlets" : 1,
					"numoutlets" : 0,
					"patching_rect" : [ 1153.0, 92.0, 150.0, 20.0 ],
					"presentation" : 1,
					"presentation_rect" : [ 24.0, 246.0, 150.0, 20.0 ],
					"text" : " file extensions"
				}

			}
, 			{
				"box" : 				{
					"id" : "obj-77",
					"linecount" : 2,
					"maxclass" : "comment",
					"numinlets" : 1,
					"numoutlets" : 0,
					"patching_rect" : [ 79.0, 222.0, 150.0, 33.0 ],
					"presentation" : 1,
					"presentation_linecount" : 2,
					"presentation_rect" : [ 58.0, 219.0, 150.0, 33.0 ],
					"text" : "<- click here to  load into max"
				}

			}
, 			{
				"box" : 				{
					"id" : "obj-73",
					"maxclass" : "button",
					"numinlets" : 1,
					"numoutlets" : 1,
					"outlettype" : [ "bang" ],
					"parameter_enable" : 0,
					"patching_rect" : [ 28.0, 215.0, 24.0, 24.0 ],
					"presentation" : 1,
					"presentation_rect" : [ 28.0, 215.0, 24.0, 24.0 ]
				}

			}
, 			{
				"box" : 				{
					"id" : "obj-80",
					"maxclass" : "message",
					"numinlets" : 2,
					"numoutlets" : 1,
					"outlettype" : [ "" ],
					"patching_rect" : [ 15.5, 72.0, 76.0, 22.0 ],
					"presentation" : 1,
					"presentation_rect" : [ 15.5, 72.0, 76.0, 22.0 ],
					"text" : "script npm ci"
				}

			}
, 			{
				"box" : 				{
					"id" : "obj-72",
					"maxclass" : "newobj",
					"numinlets" : 1,
					"numoutlets" : 0,
					"patching_rect" : [ 372.0, 558.0, 32.0, 22.0 ],
					"text" : "print"
				}

			}
, 			{
				"box" : 				{
					"id" : "obj-71",
					"maxclass" : "newobj",
					"numinlets" : 1,
					"numoutlets" : 0,
					"patching_rect" : [ 180.0, 378.0, 32.0, 22.0 ],
					"text" : "print"
				}

			}
, 			{
				"box" : 				{
					"id" : "obj-59",
					"linecount" : 8,
					"maxclass" : "message",
					"numinlets" : 2,
					"numoutlets" : 1,
					"outlettype" : [ "" ],
					"patching_rect" : [ 291.0, 350.0, 53.0, 116.0 ],
					"text" : "random oldtimeradio audio mp3 23 10000000000000000"
				}

			}
, 			{
				"box" : 				{
					"bgmode" : 0,
					"border" : 0,
					"clickthrough" : 0,
					"enablehscroll" : 0,
					"enablevscroll" : 0,
					"id" : "obj-2",
					"lockeddragscroll" : 0,
					"lockedsize" : 0,
					"maxclass" : "bpatcher",
					"name" : "n4m.monitor.maxpat",
					"numinlets" : 1,
					"numoutlets" : 1,
					"offset" : [ 0.0, 0.0 ],
					"outlettype" : [ "bang" ],
					"patching_rect" : [ 407.5, 316.0, 400.0, 220.0 ],
					"viewvisibility" : 1
				}

			}
, 			{
				"box" : 				{
					"border" : 0,
					"filename" : "helpargs.js",
					"id" : "obj-49",
					"ignoreclick" : 1,
					"jsarguments" : [ "node.script", 10 ],
					"maxclass" : "jsui",
					"numinlets" : 1,
					"numoutlets" : 1,
					"outlettype" : [ "" ],
					"parameter_enable" : 0,
					"patching_rect" : [ 270.0, 415.0, 114.205513000488281, 39.0 ]
				}

			}
, 			{
				"box" : 				{
					"id" : "obj-75",
					"maxclass" : "toggle",
					"numinlets" : 1,
					"numoutlets" : 1,
					"outlettype" : [ "int" ],
					"parameter_enable" : 0,
					"patching_rect" : [ 690.0, 1294.0, 24.0, 24.0 ]
				}

			}
, 			{
				"box" : 				{
					"id" : "obj-74",
					"maxclass" : "message",
					"numinlets" : 2,
					"numoutlets" : 1,
					"outlettype" : [ "" ],
					"patching_rect" : [ 733.0, 1307.0, 35.0, 22.0 ],
					"text" : "open"
				}

			}
, 			{
				"box" : 				{
					"id" : "obj-70",
					"maxclass" : "button",
					"numinlets" : 1,
					"numoutlets" : 1,
					"outlettype" : [ "bang" ],
					"parameter_enable" : 0,
					"patching_rect" : [ 605.0, 1297.666667759418488, 24.0, 24.0 ]
				}

			}
, 			{
				"box" : 				{
					"id" : "obj-7",
					"maxclass" : "newobj",
					"numinlets" : 2,
					"numoutlets" : 1,
					"outlettype" : [ "signal" ],
					"patching_rect" : [ 614.0, 1353.0, 69.0, 22.0 ],
					"text" : "sfrecord~ 2"
				}

			}
, 			{
				"box" : 				{
					"id" : "obj-84",
					"maxclass" : "newobj",
					"numinlets" : 2,
					"numoutlets" : 0,
					"patching_rect" : [ 314.0, 1319.333358287811279, 35.0, 22.0 ],
					"text" : "dac~"
				}

			}
, 			{
				"box" : 				{
					"id" : "obj-82",
					"maxclass" : "newobj",
					"numinlets" : 0,
					"numoutlets" : 1,
					"outlettype" : [ "" ],
					"patching_rect" : [ 1.663336830139087, 777.999994277954102, 77.0, 22.0 ],
					"text" : "r newsample"
				}

			}
, 			{
				"box" : 				{
					"id" : "obj-81",
					"maxclass" : "newobj",
					"numinlets" : 1,
					"numoutlets" : 0,
					"patching_rect" : [ 492.666684031486511, 307.99999988079071, 79.0, 22.0 ],
					"text" : "s newsample"
				}

			}
, 			{
				"box" : 				{
					"id" : "obj-67",
					"maxclass" : "message",
					"numinlets" : 2,
					"numoutlets" : 1,
					"outlettype" : [ "" ],
					"patching_rect" : [ 466.000017046928406, 245.99999988079071, 499.333292603492737, 22.0 ],
					"text" : "\"Jack Benny Program 39-10-15 Dennis' Mother Interferes with the Show.mp3\""
				}

			}
, 			{
				"box" : 				{
					"id" : "obj-61",
					"maxclass" : "newobj",
					"numinlets" : 1,
					"numoutlets" : 5,
					"outlettype" : [ "", "", "", "", "" ],
					"patching_rect" : [ 616.133338272571564, 158.666641473770142, 88.0, 22.0 ],
					"text" : "regexp (?!.*/).+"
				}

			}
, 			{
				"box" : 				{
					"id" : "obj-25",
					"maxclass" : "comment",
					"numinlets" : 1,
					"numoutlets" : 0,
					"patching_rect" : [ 804.0, 840.0, 150.0, 20.0 ],
					"presentation" : 1,
					"presentation_rect" : [ 1135.0, 221.666641473770142, 90.0, 20.0 ],
					"text" : "frequency shift"
				}

			}
, 			{
				"box" : 				{
					"id" : "obj-6",
					"maxclass" : "comment",
					"numinlets" : 1,
					"numoutlets" : 0,
					"patching_rect" : [ 786.0, 892.0, 150.0, 20.0 ],
					"presentation" : 1,
					"presentation_rect" : [ 962.0, 293.666641473770142, 96.503371999999899, 20.0 ],
					"text" : "stretching"
				}

			}
, 			{
				"box" : 				{
					"id" : "obj-9",
					"maxclass" : "newobj",
					"numinlets" : 0,
					"numoutlets" : 1,
					"outlettype" : [ "" ],
					"patching_rect" : [ 33.0, 611.5, 23.0, 22.0 ],
					"text" : "r b"
				}

			}
, 			{
				"box" : 				{
					"id" : "obj-10",
					"maxclass" : "newobj",
					"numinlets" : 1,
					"numoutlets" : 0,
					"patching_rect" : [ 98.0, 858.0, 25.0, 22.0 ],
					"text" : "s b"
				}

			}
, 			{
				"box" : 				{
					"id" : "obj-11",
					"maxclass" : "message",
					"numinlets" : 2,
					"numoutlets" : 1,
					"outlettype" : [ "" ],
					"patching_rect" : [ 14.0, 659.5, 77.0, 22.0 ],
					"text" : "set sample 1"
				}

			}
, 			{
				"box" : 				{
					"id" : "obj-15",
					"maxclass" : "message",
					"numinlets" : 2,
					"numoutlets" : 1,
					"outlettype" : [ "" ],
					"patching_rect" : [ 14.0, 694.0, 77.0, 22.0 ],
					"text" : "set sample 2"
				}

			}
, 			{
				"box" : 				{
					"id" : "obj-16",
					"maxclass" : "newobj",
					"numinlets" : 1,
					"numoutlets" : 1,
					"outlettype" : [ "bang" ],
					"patching_rect" : [ 33.0, 635.5, 58.0, 22.0 ],
					"text" : "loadbang"
				}

			}
, 			{
				"box" : 				{
					"attr" : "timestretch",
					"fontface" : 0,
					"fontname" : "Arial",
					"fontsize" : 13.0,
					"id" : "obj-43",
					"maxclass" : "attrui",
					"numinlets" : 1,
					"numoutlets" : 1,
					"outlettype" : [ "" ],
					"parameter_enable" : 0,
					"patching_rect" : [ 833.503372000000127, 935.5, 150.0, 23.0 ],
					"presentation" : 1,
					"presentation_rect" : [ 908.503371999999899, 268.666641473770142, 150.0, 23.0 ]
				}

			}
, 			{
				"box" : 				{
					"format" : 6,
					"id" : "obj-18",
					"maxclass" : "flonum",
					"numinlets" : 1,
					"numoutlets" : 2,
					"outlettype" : [ "", "bang" ],
					"parameter_enable" : 1,
					"patching_rect" : [ 859.253372000000127, 987.5, 50.0, 22.0 ],
					"presentation" : 1,
					"presentation_rect" : [ 908.503371999999899, 293.666641473770142, 50.0, 22.0 ],
					"saved_attribute_attributes" : 					{
						"valueof" : 						{
							"parameter_initial" : [ 1 ],
							"parameter_initial_enable" : 1,
							"parameter_invisible" : 1,
							"parameter_longname" : "number",
							"parameter_shortname" : "number",
							"parameter_type" : 3
						}

					}
,
					"varname" : "number"
				}

			}
, 			{
				"box" : 				{
					"id" : "obj-48",
					"maxclass" : "newobj",
					"numinlets" : 1,
					"numoutlets" : 1,
					"outlettype" : [ "signal" ],
					"patching_rect" : [ 859.253372000000127, 1037.5, 45.0, 22.0 ],
					"text" : "sig~ 1"
				}

			}
, 			{
				"box" : 				{
					"attr" : "mode",
					"fontface" : 0,
					"fontname" : "Arial",
					"fontsize" : 13.0,
					"id" : "obj-60",
					"maxclass" : "attrui",
					"numinlets" : 1,
					"numoutlets" : 1,
					"outlettype" : [ "" ],
					"parameter_enable" : 0,
					"patching_rect" : [ 833.503372000000127, 910.5, 150.0, 23.0 ],
					"presentation" : 1,
					"presentation_rect" : [ 908.503371999999899, 243.666641473770142, 150.0, 23.0 ],
					"text_width" : 59.496642999999999
				}

			}
, 			{
				"box" : 				{
					"id" : "obj-63",
					"maxclass" : "newobj",
					"numinlets" : 2,
					"numoutlets" : 1,
					"outlettype" : [ "float" ],
					"patching_rect" : [ 1043.604918999999882, 991.5, 42.0, 22.0 ],
					"text" : "* 100."
				}

			}
, 			{
				"box" : 				{
					"format" : 6,
					"id" : "obj-64",
					"maxclass" : "flonum",
					"numinlets" : 1,
					"numoutlets" : 2,
					"outlettype" : [ "", "bang" ],
					"parameter_enable" : 1,
					"patching_rect" : [ 988.753372000000127, 935.5, 50.0, 22.0 ],
					"presentation" : 1,
					"presentation_rect" : [ 1139.753372000000127, 243.666641473770142, 50.0, 22.0 ],
					"saved_attribute_attributes" : 					{
						"valueof" : 						{
							"parameter_initial" : [ 0 ],
							"parameter_initial_enable" : 1,
							"parameter_invisible" : 1,
							"parameter_longname" : "number[9]",
							"parameter_shortname" : "number",
							"parameter_type" : 3
						}

					}
,
					"varname" : "number[1]"
				}

			}
, 			{
				"box" : 				{
					"id" : "obj-65",
					"maxclass" : "message",
					"numinlets" : 2,
					"numoutlets" : 1,
					"outlettype" : [ "" ],
					"patching_rect" : [ 1043.604918999999882, 1037.5, 103.0, 22.0 ],
					"text" : "pitchshiftcent $1"
				}

			}
, 			{
				"box" : 				{
					"fontname" : "Arial",
					"fontsize" : 12.0,
					"hidden" : 1,
					"id" : "obj-19",
					"maxclass" : "newobj",
					"numinlets" : 1,
					"numoutlets" : 1,
					"outlettype" : [ "" ],
					"patching_rect" : [ 572.5, 1147.875, 166.0, 22.0 ],
					"saved_object_attributes" : 					{
						"filename" : "sampletime_to_beattime.js",
						"parameter_enable" : 0
					}
,
					"text" : "js sampletime_to_beattime.js"
				}

			}
, 			{
				"box" : 				{
					"id" : "obj-24",
					"lastchannelcount" : 0,
					"maxclass" : "live.gain~",
					"numinlets" : 2,
					"numoutlets" : 5,
					"orientation" : 1,
					"outlettype" : [ "signal", "signal", "", "float", "list" ],
					"parameter_enable" : 1,
					"patching_rect" : [ 246.512075632810593, 1164.370370447635651, 136.0, 36.0 ],
					"presentation" : 1,
					"presentation_rect" : [ 775.555555880069733, 566.370370447635651, 136.0, 36.0 ],
					"saved_attribute_attributes" : 					{
						"valueof" : 						{
							"parameter_initial" : [ -70 ],
							"parameter_initial_enable" : 1,
							"parameter_longname" : "live.gain~[10]",
							"parameter_mmax" : 6.0,
							"parameter_mmin" : -70.0,
							"parameter_shortname" : "live.gain~",
							"parameter_type" : 0,
							"parameter_unitstyle" : 4
						}

					}
,
					"showname" : 0,
					"varname" : "live.gain~[2]"
				}

			}
, 			{
				"box" : 				{
					"fontname" : "Arial",
					"fontsize" : 13.0,
					"hidden" : 1,
					"id" : "obj-28",
					"maxclass" : "newobj",
					"numinlets" : 1,
					"numoutlets" : 1,
					"outlettype" : [ "bang" ],
					"patching_rect" : [ 209.0, 795.0, 64.0, 23.0 ],
					"text" : "loadbang"
				}

			}
, 			{
				"box" : 				{
					"fontname" : "Arial",
					"fontsize" : 12.0,
					"id" : "obj-29",
					"maxclass" : "message",
					"numinlets" : 2,
					"numoutlets" : 1,
					"outlettype" : [ "" ],
					"patching_rect" : [ 246.0, 1043.0, 32.5, 22.0 ],
					"text" : "0."
				}

			}
, 			{
				"box" : 				{
					"floatoutput" : 1,
					"id" : "obj-30",
					"knobshape" : 5,
					"maxclass" : "slider",
					"numinlets" : 1,
					"numoutlets" : 1,
					"outlettype" : [ "" ],
					"parameter_enable" : 0,
					"patching_rect" : [ 89.0, 993.5, 593.0, 10.0 ],
					"presentation" : 1,
					"presentation_rect" : [ 580.0, 427.5, 593.0, 10.0 ],
					"size" : 1.0
				}

			}
, 			{
				"box" : 				{
					"fontname" : "Arial",
					"fontsize" : 12.0,
					"hidden" : 1,
					"id" : "obj-35",
					"maxclass" : "newobj",
					"numinlets" : 2,
					"numoutlets" : 1,
					"outlettype" : [ "float" ],
					"patching_rect" : [ 551.0, 1113.0, 82.0, 22.0 ],
					"text" : "snapshot~ 33"
				}

			}
, 			{
				"box" : 				{
					"fontname" : "Arial",
					"fontsize" : 12.0,
					"id" : "obj-31",
					"maxclass" : "newobj",
					"numinlets" : 2,
					"numoutlets" : 4,
					"outlettype" : [ "dictionary", "", "", "" ],
					"patching_rect" : [ 165.0, 1043.0, 59.5, 22.0 ],
					"saved_object_attributes" : 					{
						"embed" : 0,
						"parameter_enable" : 0,
						"parameter_mappable" : 0
					}
,
					"text" : "dict"
				}

			}
, 			{
				"box" : 				{
					"fontname" : "Arial",
					"fontsize" : 12.0,
					"id" : "obj-38",
					"maxclass" : "message",
					"numinlets" : 2,
					"numoutlets" : 1,
					"outlettype" : [ "" ],
					"patching_rect" : [ 240.5, 863.0, 32.5, 22.0 ],
					"presentation" : 1,
					"presentation_rect" : [ 731.5, 297.0, 32.5, 22.0 ],
					"text" : "init"
				}

			}
, 			{
				"box" : 				{
					"fontname" : "Arial",
					"fontsize" : 12.0,
					"id" : "obj-33",
					"maxclass" : "newobj",
					"numinlets" : 3,
					"numoutlets" : 3,
					"outlettype" : [ "signal", "signal", "signal" ],
					"patching_rect" : [ 254.512075632810593, 1078.0, 237.0, 22.0 ],
					"text" : "groove~ sample 2 @timestretch 1 @loop 1"
				}

			}
, 			{
				"box" : 				{
					"fontname" : "Arial",
					"fontsize" : 12.0,
					"id" : "obj-40",
					"linecount" : 4,
					"maxclass" : "comment",
					"numinlets" : 1,
					"numoutlets" : 0,
					"patching_rect" : [ 558.5, 814.0, 150.0, 60.0 ],
					"presentation" : 1,
					"presentation_linecount" : 4,
					"presentation_rect" : [ 598.0, 441.5, 150.0, 60.0 ],
					"text" : "click to add a marker.\nshift-click to delete.\ndrag to move them around."
				}

			}
, 			{
				"box" : 				{
					"fontname" : "Arial",
					"fontsize" : 12.0,
					"id" : "obj-37",
					"linecount" : 3,
					"maxclass" : "comment",
					"numinlets" : 1,
					"numoutlets" : 0,
					"patching_rect" : [ 333.0, 820.5, 216.0, 47.0 ],
					"presentation" : 1,
					"presentation_linecount" : 3,
					"presentation_rect" : [ 333.0, 820.5, 216.0, 47.0 ],
					"text" : "draw a simplified waveform, using the specified buffer, and number of points. (currently just gets the peakamp)"
				}

			}
, 			{
				"box" : 				{
					"fontname" : "Arial",
					"fontsize" : 12.0,
					"id" : "obj-42",
					"maxclass" : "message",
					"numinlets" : 2,
					"numoutlets" : 1,
					"outlettype" : [ "" ],
					"patching_rect" : [ 165.0, 827.5, 137.0, 22.0 ],
					"text" : "drawbuffer sample 1000"
				}

			}
, 			{
				"box" : 				{
					"fontname" : "Arial",
					"fontsize" : 12.0,
					"id" : "obj-45",
					"maxclass" : "message",
					"numinlets" : 2,
					"numoutlets" : 1,
					"outlettype" : [ "" ],
					"patching_rect" : [ 187.5, 863.0, 37.0, 22.0 ],
					"text" : "open"
				}

			}
, 			{
				"box" : 				{
					"filename" : "warpy2.js",
					"id" : "obj-46",
					"maxclass" : "jsui",
					"numinlets" : 1,
					"numoutlets" : 1,
					"outlettype" : [ "" ],
					"parameter_enable" : 0,
					"patching_rect" : [ 84.833333373069763, 903.5, 593.0, 87.0 ],
					"presentation" : 1,
					"presentation_rect" : [ 574.5, 333.0, 593.0, 87.0 ]
				}

			}
, 			{
				"box" : 				{
					"id" : "obj-44",
					"maxclass" : "newobj",
					"numinlets" : 1,
					"numoutlets" : 1,
					"outlettype" : [ "" ],
					"patching_rect" : [ 5.0, 805.0, 95.0, 22.0 ],
					"text" : "prepend replace"
				}

			}
, 			{
				"box" : 				{
					"buffername" : "sample",
					"id" : "obj-50",
					"maxclass" : "waveform~",
					"numinlets" : 5,
					"numoutlets" : 6,
					"outlettype" : [ "float", "float", "float", "float", "list", "" ],
					"patching_rect" : [ 93.0, 725.0, 256.0, 42.0 ],
					"presentation" : 1,
					"presentation_rect" : [ 637.0, 221.666641473770142, 256.0, 42.0 ]
				}

			}
, 			{
				"box" : 				{
					"buffername" : "sample",
					"id" : "obj-54",
					"maxclass" : "waveform~",
					"numinlets" : 5,
					"numoutlets" : 6,
					"outlettype" : [ "float", "float", "float", "float", "list", "" ],
					"patching_rect" : [ 93.0, 684.0, 256.0, 42.0 ],
					"presentation" : 1,
					"presentation_rect" : [ 637.0, 181.0, 256.0, 42.0 ]
				}

			}
, 			{
				"box" : 				{
					"id" : "obj-57",
					"maxclass" : "newobj",
					"numinlets" : 1,
					"numoutlets" : 2,
					"outlettype" : [ "float", "bang" ],
					"patching_rect" : [ 5.0, 830.0, 112.0, 22.0 ],
					"text" : "buffer~ sample -1 2"
				}

			}
, 			{
				"box" : 				{
					"id" : "obj-56",
					"maxclass" : "comment",
					"numinlets" : 1,
					"numoutlets" : 0,
					"patching_rect" : [ 998.800017535686493, 32.0, 68.399998784065247, 34.0 ],
					"presentation" : 1,
					"presentation_rect" : [ 193.800017535686493, 255.0, 68.399998784065247, 34.0 ],
					"text" : "collection\n"
				}

			}
, 			{
				"box" : 				{
					"id" : "obj-55",
					"maxclass" : "message",
					"numinlets" : 2,
					"numoutlets" : 1,
					"outlettype" : [ "" ],
					"patching_rect" : [ 998.800017535686493, 57.0, 74.0, 22.0 ],
					"presentation" : 1,
					"presentation_rect" : [ 193.800017535686493, 280.0, 74.0, 22.0 ],
					"text" : "oldtimeradio"
				}

			}
, 			{
				"box" : 				{
					"id" : "obj-53",
					"maxclass" : "newobj",
					"numinlets" : 5,
					"numoutlets" : 1,
					"outlettype" : [ "" ],
					"patching_rect" : [ 987.600017368793488, 281.000008642673492, 124.0, 22.0 ],
					"text" : "pak sym sym sym 0 0"
				}

			}
, 			{
				"box" : 				{
					"id" : "obj-52",
					"maxclass" : "newobj",
					"numinlets" : 1,
					"numoutlets" : 1,
					"outlettype" : [ "" ],
					"patching_rect" : [ 210.0, 234.099999666213989, 97.0, 22.0 ],
					"text" : "prepend random"
				}

			}
, 			{
				"box" : 				{
					"id" : "obj-51",
					"maxclass" : "message",
					"numinlets" : 2,
					"numoutlets" : 1,
					"outlettype" : [ "" ],
					"patching_rect" : [ 224.799999952316284, 186.799999415874481, 187.0, 22.0 ]
				}

			}
, 			{
				"box" : 				{
					"annotation" : "",
					"id" : "obj-27",
					"items" : [ "audio", ",", "image", ",", "movies", ",", "collection" ],
					"maxclass" : "umenu",
					"numinlets" : 1,
					"numoutlets" : 3,
					"outlettype" : [ "int", "", "" ],
					"parameter_enable" : 0,
					"patching_rect" : [ 1153.0, 57.0, 100.0, 22.0 ],
					"presentation" : 1,
					"presentation_rect" : [ 348.0, 280.0, 100.0, 22.0 ]
				}

			}
, 			{
				"box" : 				{
					"id" : "obj-26",
					"maxclass" : "comment",
					"numinlets" : 1,
					"numoutlets" : 0,
					"patching_rect" : [ 1153.0, 32.0, 150.0, 20.0 ],
					"presentation" : 1,
					"presentation_rect" : [ 348.0, 255.0, 150.0, 20.0 ],
					"text" : "Mediatype"
				}

			}
, 			{
				"box" : 				{
					"id" : "obj-23",
					"maxclass" : "newobj",
					"numinlets" : 1,
					"numoutlets" : 0,
					"patching_rect" : [ 151.0, 549.0, 31.0, 22.0 ],
					"text" : "s url"
				}

			}
, 			{
				"box" : 				{
					"id" : "obj-22",
					"maxclass" : "newobj",
					"numinlets" : 0,
					"numoutlets" : 1,
					"outlettype" : [ "" ],
					"patching_rect" : [ 755.0, 57.0, 29.0, 22.0 ],
					"text" : "r url"
				}

			}
, 			{
				"box" : 				{
					"id" : "obj-21",
					"maxclass" : "newobj",
					"numinlets" : 2,
					"numoutlets" : 2,
					"outlettype" : [ "", "" ],
					"patching_rect" : [ 151.0, 512.0, 53.0, 22.0 ],
					"text" : "route url"
				}

			}
, 			{
				"box" : 				{
					"id" : "obj-20",
					"maxclass" : "button",
					"numinlets" : 1,
					"numoutlets" : 1,
					"outlettype" : [ "bang" ],
					"parameter_enable" : 0,
					"patching_rect" : [ 49.0, 394.0, 24.0, 24.0 ]
				}

			}
, 			{
				"box" : 				{
					"id" : "obj-17",
					"maxclass" : "message",
					"numinlets" : 2,
					"numoutlets" : 1,
					"outlettype" : [ "" ],
					"patching_rect" : [ 49.0, 435.0, 42.0, 22.0 ],
					"text" : "get url"
				}

			}
, 			{
				"box" : 				{
					"id" : "obj-14",
					"maxclass" : "newobj",
					"numinlets" : 2,
					"numoutlets" : 4,
					"outlettype" : [ "dictionary", "", "", "" ],
					"patching_rect" : [ 109.25, 435.0, 50.5, 22.0 ],
					"saved_object_attributes" : 					{
						"embed" : 0,
						"parameter_enable" : 0,
						"parameter_mappable" : 0
					}
,
					"text" : "dict"
				}

			}
, 			{
				"box" : 				{
					"id" : "obj-13",
					"linecount" : 2,
					"maxclass" : "newobj",
					"numinlets" : 1,
					"numoutlets" : 1,
					"outlettype" : [ "" ],
					"patching_rect" : [ 340.0, 250.0, 101.0, 35.0 ],
					"text" : "prepend download"
				}

			}
, 			{
				"box" : 				{
					"id" : "obj-12",
					"linecount" : 3,
					"maxclass" : "message",
					"numinlets" : 2,
					"numoutlets" : 1,
					"outlettype" : [ "" ],
					"patching_rect" : [ 340.0, 121.666641473770142, 483.0, 49.0 ],
					"presentation" : 1,
					"presentation_linecount" : 3,
					"presentation_rect" : [ 288.0, 104.666641473770142, 483.0, 49.0 ],
					"text" : "\"https://ia801307.us.archive.org/13/items/JackBennyProgram391015DennisMotherInterferesWithTheShow/Jack Benny Program 39-10-15 Dennis' Mother Interferes with the Show.mp3\""
				}

			}
, 			{
				"box" : 				{
					"id" : "obj-4",
					"maxclass" : "message",
					"numinlets" : 2,
					"numoutlets" : 1,
					"outlettype" : [ "" ],
					"patching_rect" : [ 228.0, 143.0, 61.0, 22.0 ],
					"presentation" : 1,
					"presentation_rect" : [ 288.0, 72.0, 61.0, 22.0 ],
					"text" : "random"
				}

			}
, 			{
				"box" : 				{
					"id" : "obj-8",
					"maxclass" : "message",
					"numinlets" : 2,
					"numoutlets" : 1,
					"outlettype" : [ "" ],
					"patching_rect" : [ 23.5, 164.799999415874481, 60.0, 22.0 ],
					"presentation" : 1,
					"presentation_rect" : [ 288.0, 169.799999415874481, 60.0, 22.0 ],
					"text" : "download"
				}

			}
, 			{
				"box" : 				{
					"id" : "obj-5",
					"maxclass" : "message",
					"numinlets" : 2,
					"numoutlets" : 1,
					"outlettype" : [ "" ],
					"patching_rect" : [ 15.5, 110.0, 91.0, 22.0 ],
					"presentation" : 1,
					"presentation_rect" : [ 15.5, 110.0, 91.0, 22.0 ],
					"text" : "script start"
				}

			}
, 			{
				"box" : 				{
					"id" : "obj-1",
					"linecount" : 2,
					"maxclass" : "newobj",
					"numinlets" : 1,
					"numoutlets" : 2,
					"outlettype" : [ "", "" ],
					"patching_rect" : [ 11.0, 282.0, 244.0, 35.0 ],
					"saved_object_attributes" : 					{
						"autostart" : 1,
						"defer" : 0,
						"node_bin_path" : "",
						"npm_bin_path" : "",
						"watch" : 1
					}
,
					"text" : "node.script archive.js @autostart 1 @watch 1"
				}

			}
 ],
		"lines" : [ 			{
				"patchline" : 				{
					"destination" : [ "obj-14", 0 ],
					"order" : 1,
					"source" : [ "obj-1", 0 ]
				}

			}
, 			{
				"patchline" : 				{
					"destination" : [ "obj-2", 0 ],
					"order" : 1,
					"source" : [ "obj-1", 1 ]
				}

			}
, 			{
				"patchline" : 				{
					"destination" : [ "obj-71", 0 ],
					"midpoints" : [ 189.5, 379.0 ],
					"order" : 0,
					"source" : [ "obj-1", 0 ]
				}

			}
, 			{
				"patchline" : 				{
					"destination" : [ "obj-72", 0 ],
					"order" : 0,
					"source" : [ "obj-1", 1 ]
				}

			}
, 			{
				"patchline" : 				{
					"destination" : [ "obj-96", 0 ],
					"source" : [ "obj-108", 0 ]
				}

			}
, 			{
				"patchline" : 				{
					"destination" : [ "obj-97", 0 ],
					"source" : [ "obj-109", 0 ]
				}

			}
, 			{
				"patchline" : 				{
					"destination" : [ "obj-54", 0 ],
					"source" : [ "obj-11", 0 ]
				}

			}
, 			{
				"patchline" : 				{
					"destination" : [ "obj-27", 0 ],
					"order" : 1,
					"source" : [ "obj-112", 0 ]
				}

			}
, 			{
				"patchline" : 				{
					"destination" : [ "obj-34", 0 ],
					"order" : 0,
					"source" : [ "obj-112", 0 ]
				}

			}
, 			{
				"patchline" : 				{
					"destination" : [ "obj-55", 0 ],
					"order" : 2,
					"source" : [ "obj-112", 0 ]
				}

			}
, 			{
				"patchline" : 				{
					"destination" : [ "obj-13", 0 ],
					"order" : 1,
					"source" : [ "obj-12", 0 ]
				}

			}
, 			{
				"patchline" : 				{
					"destination" : [ "obj-61", 0 ],
					"order" : 0,
					"source" : [ "obj-12", 0 ]
				}

			}
, 			{
				"patchline" : 				{
					"destination" : [ "obj-1", 0 ],
					"source" : [ "obj-13", 0 ]
				}

			}
, 			{
				"patchline" : 				{
					"destination" : [ "obj-20", 0 ],
					"source" : [ "obj-14", 0 ]
				}

			}
, 			{
				"patchline" : 				{
					"destination" : [ "obj-21", 0 ],
					"source" : [ "obj-14", 1 ]
				}

			}
, 			{
				"patchline" : 				{
					"destination" : [ "obj-50", 0 ],
					"source" : [ "obj-15", 0 ]
				}

			}
, 			{
				"patchline" : 				{
					"destination" : [ "obj-11", 0 ],
					"order" : 1,
					"source" : [ "obj-16", 0 ]
				}

			}
, 			{
				"patchline" : 				{
					"destination" : [ "obj-15", 0 ],
					"midpoints" : [ 42.5, 661.0, 23.5, 661.0 ],
					"order" : 0,
					"source" : [ "obj-16", 0 ]
				}

			}
, 			{
				"patchline" : 				{
					"destination" : [ "obj-14", 0 ],
					"source" : [ "obj-17", 0 ]
				}

			}
, 			{
				"patchline" : 				{
					"destination" : [ "obj-48", 0 ],
					"source" : [ "obj-18", 0 ]
				}

			}
, 			{
				"patchline" : 				{
					"destination" : [ "obj-30", 0 ],
					"hidden" : 1,
					"midpoints" : [ 582.0, 1189.5, 751.5, 1189.5, 751.5, 1008.875, 98.5, 1008.875 ],
					"source" : [ "obj-19", 0 ]
				}

			}
, 			{
				"patchline" : 				{
					"destination" : [ "obj-17", 0 ],
					"source" : [ "obj-20", 0 ]
				}

			}
, 			{
				"patchline" : 				{
					"destination" : [ "obj-23", 0 ],
					"source" : [ "obj-21", 0 ]
				}

			}
, 			{
				"patchline" : 				{
					"destination" : [ "obj-12", 1 ],
					"source" : [ "obj-22", 0 ]
				}

			}
, 			{
				"patchline" : 				{
					"destination" : [ "obj-7", 1 ],
					"order" : 0,
					"source" : [ "obj-24", 1 ]
				}

			}
, 			{
				"patchline" : 				{
					"destination" : [ "obj-7", 0 ],
					"order" : 0,
					"source" : [ "obj-24", 0 ]
				}

			}
, 			{
				"patchline" : 				{
					"destination" : [ "obj-84", 1 ],
					"order" : 1,
					"source" : [ "obj-24", 1 ]
				}

			}
, 			{
				"patchline" : 				{
					"destination" : [ "obj-84", 0 ],
					"order" : 1,
					"source" : [ "obj-24", 0 ]
				}

			}
, 			{
				"patchline" : 				{
					"destination" : [ "obj-53", 1 ],
					"midpoints" : [ 1203.0, 157.500004321336746, 1023.350017368793488, 157.500004321336746 ],
					"source" : [ "obj-27", 1 ]
				}

			}
, 			{
				"patchline" : 				{
					"destination" : [ "obj-42", 0 ],
					"hidden" : 1,
					"source" : [ "obj-28", 0 ]
				}

			}
, 			{
				"patchline" : 				{
					"destination" : [ "obj-33", 0 ],
					"source" : [ "obj-29", 0 ]
				}

			}
, 			{
				"patchline" : 				{
					"destination" : [ "obj-24", 1 ],
					"source" : [ "obj-33", 1 ]
				}

			}
, 			{
				"patchline" : 				{
					"destination" : [ "obj-24", 0 ],
					"source" : [ "obj-33", 0 ]
				}

			}
, 			{
				"patchline" : 				{
					"destination" : [ "obj-35", 0 ],
					"source" : [ "obj-33", 2 ]
				}

			}
, 			{
				"patchline" : 				{
					"destination" : [ "obj-53", 2 ],
					"source" : [ "obj-34", 0 ]
				}

			}
, 			{
				"patchline" : 				{
					"destination" : [ "obj-19", 0 ],
					"hidden" : 1,
					"source" : [ "obj-35", 0 ]
				}

			}
, 			{
				"patchline" : 				{
					"destination" : [ "obj-46", 0 ],
					"source" : [ "obj-38", 0 ]
				}

			}
, 			{
				"patchline" : 				{
					"destination" : [ "obj-51", 0 ],
					"source" : [ "obj-4", 0 ]
				}

			}
, 			{
				"patchline" : 				{
					"destination" : [ "obj-46", 0 ],
					"source" : [ "obj-42", 0 ]
				}

			}
, 			{
				"patchline" : 				{
					"destination" : [ "obj-33", 0 ],
					"source" : [ "obj-43", 0 ]
				}

			}
, 			{
				"patchline" : 				{
					"destination" : [ "obj-57", 0 ],
					"source" : [ "obj-44", 0 ]
				}

			}
, 			{
				"patchline" : 				{
					"destination" : [ "obj-46", 0 ],
					"source" : [ "obj-45", 0 ]
				}

			}
, 			{
				"patchline" : 				{
					"destination" : [ "obj-19", 0 ],
					"hidden" : 1,
					"midpoints" : [ 94.333333373069763, 1008.875, 582.0, 1008.875 ],
					"order" : 0,
					"source" : [ "obj-46", 0 ]
				}

			}
, 			{
				"patchline" : 				{
					"destination" : [ "obj-31", 0 ],
					"order" : 2,
					"source" : [ "obj-46", 0 ]
				}

			}
, 			{
				"patchline" : 				{
					"destination" : [ "obj-33", 0 ],
					"order" : 1,
					"source" : [ "obj-46", 0 ]
				}

			}
, 			{
				"patchline" : 				{
					"destination" : [ "obj-33", 0 ],
					"source" : [ "obj-48", 0 ]
				}

			}
, 			{
				"patchline" : 				{
					"destination" : [ "obj-1", 0 ],
					"source" : [ "obj-5", 0 ]
				}

			}
, 			{
				"patchline" : 				{
					"destination" : [ "obj-52", 0 ],
					"source" : [ "obj-51", 0 ]
				}

			}
, 			{
				"patchline" : 				{
					"destination" : [ "obj-1", 0 ],
					"order" : 1,
					"source" : [ "obj-52", 0 ]
				}

			}
, 			{
				"patchline" : 				{
					"destination" : [ "obj-59", 1 ],
					"order" : 0,
					"source" : [ "obj-52", 0 ]
				}

			}
, 			{
				"patchline" : 				{
					"destination" : [ "obj-51", 1 ],
					"source" : [ "obj-53", 0 ]
				}

			}
, 			{
				"patchline" : 				{
					"destination" : [ "obj-53", 0 ],
					"source" : [ "obj-55", 0 ]
				}

			}
, 			{
				"patchline" : 				{
					"destination" : [ "obj-10", 0 ],
					"order" : 1,
					"source" : [ "obj-57", 1 ]
				}

			}
, 			{
				"patchline" : 				{
					"destination" : [ "obj-42", 0 ],
					"order" : 0,
					"source" : [ "obj-57", 1 ]
				}

			}
, 			{
				"patchline" : 				{
					"destination" : [ "obj-33", 0 ],
					"source" : [ "obj-60", 0 ]
				}

			}
, 			{
				"patchline" : 				{
					"destination" : [ "obj-67", 1 ],
					"source" : [ "obj-61", 2 ]
				}

			}
, 			{
				"patchline" : 				{
					"destination" : [ "obj-65", 0 ],
					"source" : [ "obj-63", 0 ]
				}

			}
, 			{
				"patchline" : 				{
					"destination" : [ "obj-63", 0 ],
					"midpoints" : [ 998.253372000000127, 982.0, 1053.104918999999882, 982.0 ],
					"source" : [ "obj-64", 0 ]
				}

			}
, 			{
				"patchline" : 				{
					"destination" : [ "obj-33", 0 ],
					"source" : [ "obj-65", 0 ]
				}

			}
, 			{
				"patchline" : 				{
					"destination" : [ "obj-81", 0 ],
					"source" : [ "obj-67", 0 ]
				}

			}
, 			{
				"patchline" : 				{
					"destination" : [ "obj-67", 0 ],
					"source" : [ "obj-73", 0 ]
				}

			}
, 			{
				"patchline" : 				{
					"destination" : [ "obj-7", 0 ],
					"source" : [ "obj-74", 0 ]
				}

			}
, 			{
				"patchline" : 				{
					"destination" : [ "obj-7", 0 ],
					"source" : [ "obj-75", 0 ]
				}

			}
, 			{
				"patchline" : 				{
					"destination" : [ "obj-1", 0 ],
					"order" : 1,
					"source" : [ "obj-8", 0 ]
				}

			}
, 			{
				"patchline" : 				{
					"destination" : [ "obj-12", 0 ],
					"order" : 0,
					"source" : [ "obj-8", 0 ]
				}

			}
, 			{
				"patchline" : 				{
					"destination" : [ "obj-1", 0 ],
					"source" : [ "obj-80", 0 ]
				}

			}
, 			{
				"patchline" : 				{
					"destination" : [ "obj-44", 0 ],
					"source" : [ "obj-82", 0 ]
				}

			}
, 			{
				"patchline" : 				{
					"destination" : [ "obj-16", 0 ],
					"source" : [ "obj-9", 0 ]
				}

			}
, 			{
				"patchline" : 				{
					"destination" : [ "obj-53", 3 ],
					"source" : [ "obj-96", 0 ]
				}

			}
, 			{
				"patchline" : 				{
					"destination" : [ "obj-53", 4 ],
					"source" : [ "obj-97", 0 ]
				}

			}
 ],
		"parameters" : 		{
			"obj-18" : [ "number", "number", 0 ],
			"obj-24" : [ "live.gain~[10]", "live.gain~", 0 ],
			"obj-64" : [ "number[9]", "number", 0 ],
			"parameterbanks" : 			{

			}
,
			"inherited_shortname" : 1
		}
,
		"dependency_cache" : [ 			{
				"name" : "archive.js",
				"bootpath" : "~/Documents/opn-max",
				"patcherrelativepath" : ".",
				"type" : "TEXT",
				"implicit" : 1
			}
, 			{
				"name" : "fit_jweb_to_bounds.js",
				"bootpath" : "C74:/packages/Node for Max/patchers/debug-monitor",
				"type" : "TEXT",
				"implicit" : 1
			}
, 			{
				"name" : "helpargs.js",
				"bootpath" : "C74:/help/resources",
				"type" : "TEXT",
				"implicit" : 1
			}
, 			{
				"name" : "n4m.monitor.maxpat",
				"bootpath" : "C74:/packages/Node for Max/patchers/debug-monitor",
				"type" : "JSON",
				"implicit" : 1
			}
, 			{
				"name" : "resize_n4m_monitor_patcher.js",
				"bootpath" : "C74:/packages/Node for Max/patchers/debug-monitor",
				"type" : "TEXT",
				"implicit" : 1
			}
, 			{
				"name" : "sampletime_to_beattime.js",
				"bootpath" : "C74:/help/msp",
				"type" : "TEXT",
				"implicit" : 1
			}
, 			{
				"name" : "warpy2.js",
				"bootpath" : "C74:/help/msp",
				"type" : "TEXT",
				"implicit" : 1
			}
 ],
		"autosave" : 0,
		"styles" : [ 			{
				"name" : "AudioStatus_Menu",
				"default" : 				{
					"bgfillcolor" : 					{
						"angle" : 270.0,
						"autogradient" : 0,
						"color" : [ 0.294118, 0.313726, 0.337255, 1 ],
						"color1" : [ 0.454902, 0.462745, 0.482353, 0.0 ],
						"color2" : [ 0.290196, 0.309804, 0.301961, 1.0 ],
						"proportion" : 0.39,
						"type" : "color"
					}

				}
,
				"parentstyle" : "",
				"multi" : 0
			}
, 			{
				"name" : "Audiomix",
				"default" : 				{
					"bgfillcolor" : 					{
						"angle" : 270.0,
						"color" : [ 0.290196, 0.309804, 0.301961, 1.0 ],
						"color1" : [ 0.376471, 0.384314, 0.4, 1.0 ],
						"color2" : [ 0.290196, 0.309804, 0.301961, 1.0 ],
						"proportion" : 0.39,
						"type" : "gradient"
					}

				}
,
				"parentstyle" : "",
				"multi" : 0
			}
, 			{
				"name" : "Max 12 Regular",
				"parentstyle" : "",
				"multi" : 0
			}
, 			{
				"name" : "mystyle",
				"default" : 				{
					"bgcolor" : [ 1.0, 0.999974, 0.999991, 1.0 ],
					"bgfillcolor" : 					{
						"angle" : 270.0,
						"autogradient" : 0,
						"color" : [ 0.290196, 0.309804, 0.301961, 1.0 ],
						"color1" : [ 0.85109, 0.842249, 0.830042, 1.0 ],
						"color2" : [ 1.0, 1.0, 1.0, 1.0 ],
						"proportion" : 0.39,
						"type" : "gradient"
					}
,
					"fontname" : [ "Monaco" ],
					"textcolor_inverse" : [ 0.0, 0.0, 0.0, 1.0 ]
				}
,
				"parentstyle" : "",
				"multi" : 0
			}
, 			{
				"name" : "newobjYellow-1",
				"default" : 				{
					"accentcolor" : [ 0.82517, 0.78181, 0.059545, 1.0 ],
					"fontsize" : [ 12.059008 ]
				}
,
				"parentstyle" : "",
				"multi" : 0
			}
, 			{
				"name" : "white monospace",
				"default" : 				{
					"accentcolor" : [ 0.85109, 0.842249, 0.830042, 1.0 ],
					"bgcolor" : [ 0.982943, 0.978557, 0.972212, 1.0 ],
					"bgfillcolor" : 					{
						"angle" : 270.0,
						"autogradient" : 0,
						"color" : [ 0.290196, 0.309804, 0.301961, 1.0 ],
						"color1" : [ 1.0, 0.999974, 0.999991, 1.0 ],
						"color2" : [ 0.813701, 0.827634, 0.818829, 1.0 ],
						"proportion" : 0.39,
						"type" : "gradient"
					}
,
					"color" : [ 0.18882, 0.288104, 0.351331, 1.0 ],
					"elementcolor" : [ 0.780914, 0.800218, 0.843168, 1.0 ],
					"fontname" : [ "Monaco" ],
					"textcolor_inverse" : [ 0.0, 0.0, 0.0, 1.0 ]
				}
,
				"parentstyle" : "",
				"multi" : 0
			}
 ]
	}

}
